<svg width="223" height="31" viewBox="0 0 223 31" fill="none" xmlns="http://www.w3.org/2000/svg">
<path d="M56.6177 13.1239V20.3914C56.3521 20.7417 55.9329 21.1219 55.3601 21.5321C54.7957 21.9423 54.0569 22.2969 53.1438 22.5959C52.2307 22.8865 51.1101 23.0317 49.782 23.0317C48.6282 23.0317 47.574 22.8352 46.6194 22.4421C45.6648 22.0405 44.843 21.4552 44.1541 20.6862C43.4651 19.9171 42.9338 18.9772 42.5603 17.8663C42.1868 16.7555 42 15.4866 42 14.0596V12.8291C42 11.4021 42.1743 10.1332 42.5229 9.02234C42.8799 7.9115 43.3862 6.97156 44.042 6.20251C44.7061 5.43347 45.4988 4.84814 46.4202 4.44653C47.3499 4.04492 48.3875 3.84412 49.533 3.84412C51.0686 3.84412 52.3303 4.10474 53.3181 4.62598C54.3142 5.14722 55.0779 5.86499 55.6091 6.7793C56.1404 7.68506 56.4724 8.72754 56.6052 9.90674H53.2683C53.177 9.25732 52.9944 8.68909 52.7205 8.20203C52.4465 7.70642 52.0564 7.3219 51.55 7.04846C51.052 6.76648 50.4045 6.62549 49.6077 6.62549C48.9353 6.62549 48.3418 6.76221 47.8271 7.03564C47.3125 7.30908 46.8809 7.70642 46.5322 8.22766C46.1836 8.7489 45.918 9.39404 45.7354 10.1631C45.561 10.9321 45.4739 11.8123 45.4739 12.8035V14.0596C45.4739 15.0593 45.5735 15.948 45.7727 16.7256C45.9719 17.4946 46.2583 18.144 46.6318 18.6738C47.0137 19.1951 47.4827 19.5924 48.0388 19.8658C48.6033 20.1307 49.2424 20.2632 49.9563 20.2632C50.6038 20.2632 51.1392 20.2076 51.5625 20.0966C51.9941 19.9769 52.3386 19.8359 52.5959 19.6736C52.8533 19.5112 53.0525 19.3531 53.1936 19.1993V15.7002H49.5952V13.1239H56.6177Z" fill="#606060"/>
<path d="M59.0208 15.9822V15.713C59.0208 14.6962 59.1619 13.7605 59.4441 12.906C59.7263 12.043 60.1372 11.2953 60.6768 10.663C61.2163 10.0306 61.8762 9.53931 62.6565 9.18896C63.4368 8.83008 64.325 8.65063 65.321 8.65063C66.3337 8.65063 67.2302 8.83008 68.0105 9.18896C68.7991 9.53931 69.4631 10.0306 70.0027 10.663C70.5422 11.2953 70.9531 12.043 71.2354 12.906C71.5176 13.7605 71.6587 14.6962 71.6587 15.713V15.9822C71.6587 16.9905 71.5176 17.9261 71.2354 18.7892C70.9531 19.6437 70.5422 20.3914 70.0027 21.0322C69.4631 21.6646 68.8032 22.1559 68.0229 22.5062C67.2427 22.8566 66.3503 23.0317 65.3459 23.0317C64.3499 23.0317 63.4575 22.8566 62.6689 22.5062C61.8804 22.1559 61.2163 21.6646 60.6768 21.0322C60.1372 20.3914 59.7263 19.6437 59.4441 18.7892C59.1619 17.9261 59.0208 16.9905 59.0208 15.9822ZM62.3079 15.713V15.9822C62.3079 16.5889 62.366 17.1571 62.4822 17.6869C62.5984 18.2167 62.7769 18.6824 63.0176 19.084C63.2583 19.4856 63.5696 19.8018 63.9514 20.0325C64.3416 20.2546 64.8064 20.3657 65.3459 20.3657C65.8772 20.3657 66.3337 20.2546 66.7156 20.0325C67.0974 19.8018 67.4087 19.4856 67.6494 19.084C67.8984 18.6824 68.0811 18.2167 68.1973 17.6869C68.3135 17.1571 68.3716 16.5889 68.3716 15.9822V15.713C68.3716 15.1149 68.3135 14.5552 68.1973 14.0339C68.0811 13.5042 67.8984 13.0385 67.6494 12.6368C67.4087 12.2267 67.0933 11.9062 66.7031 11.6755C66.3213 11.4363 65.8606 11.3167 65.321 11.3167C64.7898 11.3167 64.3333 11.4363 63.9514 11.6755C63.5696 11.9062 63.2583 12.2267 63.0176 12.6368C62.7769 13.0385 62.5984 13.5042 62.4822 14.0339C62.366 14.5552 62.3079 15.1149 62.3079 15.713Z" fill="#606060"/>
<path d="M73.4641 15.9822V15.713C73.4641 14.6962 73.6052 13.7605 73.8875 12.906C74.1697 12.043 74.5806 11.2953 75.1201 10.663C75.6597 10.0306 76.3196 9.53931 77.0999 9.18896C77.8801 8.83008 78.7683 8.65063 79.7644 8.65063C80.7771 8.65063 81.6736 8.83008 82.4539 9.18896C83.2424 9.53931 83.9065 10.0306 84.446 10.663C84.9856 11.2953 85.3965 12.043 85.6787 12.906C85.9609 13.7605 86.1021 14.6962 86.1021 15.713V15.9822C86.1021 16.9905 85.9609 17.9261 85.6787 18.7892C85.3965 19.6437 84.9856 20.3914 84.446 21.0322C83.9065 21.6646 83.2466 22.1559 82.4663 22.5062C81.686 22.8566 80.7937 23.0317 79.7893 23.0317C78.7932 23.0317 77.9009 22.8566 77.1123 22.5062C76.3237 22.1559 75.6597 21.6646 75.1201 21.0322C74.5806 20.3914 74.1697 19.6437 73.8875 18.7892C73.6052 17.9261 73.4641 16.9905 73.4641 15.9822ZM76.7512 15.713V15.9822C76.7512 16.5889 76.8093 17.1571 76.9255 17.6869C77.0417 18.2167 77.2202 18.6824 77.4609 19.084C77.7017 19.4856 78.0129 19.8018 78.3948 20.0325C78.7849 20.2546 79.2498 20.3657 79.7893 20.3657C80.3206 20.3657 80.7771 20.2546 81.1589 20.0325C81.5408 19.8018 81.8521 19.4856 82.0928 19.084C82.3418 18.6824 82.5244 18.2167 82.6406 17.6869C82.7568 17.1571 82.8149 16.5889 82.8149 15.9822V15.713C82.8149 15.1149 82.7568 14.5552 82.6406 14.0339C82.5244 13.5042 82.3418 13.0385 82.0928 12.6368C81.8521 12.2267 81.5366 11.9062 81.1465 11.6755C80.7646 11.4363 80.304 11.3167 79.7644 11.3167C79.2332 11.3167 78.7766 11.4363 78.3948 11.6755C78.0129 11.9062 77.7017 12.2267 77.4609 12.6368C77.2202 13.0385 77.0417 13.5042 76.9255 14.0339C76.8093 14.5552 76.7512 15.1149 76.7512 15.713Z" fill="#606060"/>
<path d="M97.0591 8.90698H100.047V22.3524C100.047 23.6085 99.7817 24.6724 99.2505 25.5439C98.7275 26.4241 97.9929 27.0906 97.0466 27.5435C96.1003 28.0049 95.0005 28.2356 93.7471 28.2356C93.2075 28.2356 92.6223 28.1587 91.9915 28.0049C91.3689 27.8511 90.7671 27.6075 90.186 27.2743C89.6133 26.9496 89.136 26.5266 88.7542 26.0054L90.2358 24.0059C90.6841 24.5442 91.1904 24.9501 91.7549 25.2235C92.3193 25.5055 92.9294 25.6465 93.5852 25.6465C94.2493 25.6465 94.8137 25.5183 95.2786 25.262C95.7517 25.0142 96.1128 24.6467 96.3618 24.1597C96.6191 23.6812 96.7478 23.0916 96.7478 22.3909V12.0729L97.0591 8.90698ZM87.9573 16.0078V15.7386C87.9573 14.6791 88.0818 13.7178 88.3308 12.8547C88.5798 11.9832 88.9368 11.2355 89.4016 10.6117C89.8748 9.98792 90.4434 9.50513 91.1074 9.16333C91.7798 8.82153 92.5352 8.65063 93.3735 8.65063C94.2617 8.65063 95.0088 8.81726 95.6147 9.15051C96.229 9.48376 96.7354 9.95801 97.1338 10.5732C97.5405 11.1885 97.856 11.9191 98.0801 12.765C98.3125 13.6024 98.491 14.5253 98.6155 15.5336V16.2642C98.4993 17.2468 98.3125 18.1483 98.0552 18.9686C97.8062 19.7889 97.4741 20.5067 97.0591 21.1219C96.644 21.7286 96.1294 22.1986 95.5151 22.5319C94.9009 22.8651 94.1787 23.0317 93.3486 23.0317C92.5186 23.0317 91.7715 22.8566 91.1074 22.5062C90.4434 22.1559 89.8748 21.6646 89.4016 21.0322C88.9368 20.3999 88.5798 19.6565 88.3308 18.802C88.0818 17.9475 87.9573 17.0161 87.9573 16.0078ZM91.2444 15.7386V16.0078C91.2444 16.606 91.3025 17.1656 91.4187 17.6869C91.5349 18.2081 91.7134 18.6696 91.9541 19.0712C92.1948 19.4642 92.4978 19.7719 92.863 19.994C93.2283 20.2162 93.6641 20.3273 94.1704 20.3273C94.8511 20.3273 95.4072 20.182 95.8389 19.8915C96.2788 19.5924 96.6108 19.1865 96.835 18.6738C97.0674 18.1526 97.2168 17.5673 97.2832 16.9178V14.9055C97.2417 14.3928 97.1504 13.9186 97.0093 13.4828C96.8765 13.047 96.6897 12.671 96.449 12.3549C96.2083 12.0387 95.9011 11.7909 95.5276 11.6115C95.1541 11.432 94.71 11.3423 94.1953 11.3423C93.6973 11.3423 93.2615 11.4576 92.8879 11.6884C92.5144 11.9105 92.2073 12.2224 91.9666 12.624C91.7258 13.0256 91.5432 13.4913 91.4187 14.0211C91.3025 14.5509 91.2444 15.1234 91.2444 15.7386Z" fill="#606060"/>
<path d="M106.497 3.08789V22.7754H103.198V3.08789H106.497Z" fill="#606060"/>
<path d="M115.686 23.0317C114.665 23.0317 113.748 22.8608 112.934 22.519C112.121 22.1772 111.428 21.703 110.855 21.0963C110.291 20.4811 109.855 19.7676 109.548 18.9558C109.249 18.1355 109.099 17.2554 109.099 16.3154V15.8027C109.099 14.7346 109.249 13.7648 109.548 12.8932C109.846 12.0131 110.27 11.2568 110.818 10.6245C111.365 9.99219 112.021 9.50513 112.785 9.16333C113.549 8.82153 114.391 8.65063 115.312 8.65063C116.267 8.65063 117.11 8.81726 117.84 9.15051C118.571 9.47522 119.181 9.93665 119.67 10.5348C120.16 11.1329 120.53 11.8507 120.779 12.6881C121.028 13.517 121.152 14.4355 121.152 15.4438V16.8666H110.594V14.5338H117.915V14.2775C117.898 13.7391 117.799 13.2478 117.616 12.8035C117.433 12.3506 117.151 11.9917 116.769 11.7268C116.387 11.4534 115.894 11.3167 115.288 11.3167C114.798 11.3167 114.37 11.4277 114.005 11.6499C113.648 11.8635 113.349 12.1711 113.109 12.5728C112.876 12.9658 112.702 13.4358 112.586 13.9827C112.469 14.5295 112.411 15.1362 112.411 15.8027V16.3154C112.411 16.8965 112.486 17.4348 112.635 17.9304C112.793 18.426 113.021 18.8575 113.32 19.225C113.627 19.5839 113.993 19.8658 114.416 20.0709C114.848 20.2675 115.337 20.3657 115.885 20.3657C116.574 20.3657 117.197 20.229 117.753 19.9556C118.317 19.6736 118.807 19.2592 119.222 18.7123L120.878 20.4811C120.596 20.9083 120.214 21.3185 119.733 21.7115C119.26 22.1046 118.687 22.425 118.014 22.6729C117.342 22.9121 116.566 23.0317 115.686 23.0317Z" fill="#606060"/>
<path d="M129.955 4.11328H136.542C137.92 4.11328 139.103 4.3269 140.09 4.75415C141.078 5.1814 141.838 5.81372 142.369 6.65112C142.9 7.48853 143.166 8.51819 143.166 9.74011C143.166 10.7057 143 11.5431 142.668 12.2523C142.336 12.9615 141.867 13.5554 141.261 14.0339C140.663 14.5125 139.958 14.8884 139.144 15.1619L138.073 15.7258H132.259L132.234 12.9445H136.579C137.285 12.9445 137.87 12.8163 138.335 12.5599C138.8 12.3036 139.148 11.949 139.381 11.4961C139.621 11.0432 139.742 10.5262 139.742 9.94519C139.742 9.32141 139.625 8.78308 139.393 8.3302C139.161 7.86877 138.808 7.51416 138.335 7.26636C137.862 7.01855 137.264 6.89465 136.542 6.89465H133.379V22.7754H129.955V4.11328ZM140.19 22.7754L135.994 14.4185L139.617 14.4056L143.863 22.5959V22.7754H140.19Z" fill="#606060"/>
<path d="M151.969 23.0317C150.948 23.0317 150.031 22.8608 149.217 22.519C148.404 22.1772 147.71 21.703 147.138 21.0963C146.573 20.4811 146.137 19.7676 145.83 18.9558C145.531 18.1355 145.382 17.2554 145.382 16.3154V15.8027C145.382 14.7346 145.531 13.7648 145.83 12.8932C146.129 12.0131 146.552 11.2568 147.1 10.6245C147.648 9.99219 148.304 9.50513 149.068 9.16333C149.831 8.82153 150.674 8.65063 151.595 8.65063C152.55 8.65063 153.392 8.81726 154.123 9.15051C154.853 9.47522 155.463 9.93665 155.953 10.5348C156.443 11.1329 156.812 11.8507 157.061 12.6881C157.31 13.517 157.435 14.4355 157.435 15.4438V16.8666H146.876V14.5338H154.198V14.2775C154.181 13.7391 154.081 13.2478 153.899 12.8035C153.716 12.3506 153.434 11.9917 153.052 11.7268C152.67 11.4534 152.176 11.3167 151.57 11.3167C151.081 11.3167 150.653 11.4277 150.288 11.6499C149.931 11.8635 149.632 12.1711 149.391 12.5728C149.159 12.9658 148.985 13.4358 148.868 13.9827C148.752 14.5295 148.694 15.1362 148.694 15.8027V16.3154C148.694 16.8965 148.769 17.4348 148.918 17.9304C149.076 18.426 149.304 18.8575 149.603 19.225C149.91 19.5839 150.275 19.8658 150.699 20.0709C151.13 20.2675 151.62 20.3657 152.168 20.3657C152.857 20.3657 153.479 20.229 154.036 19.9556C154.6 19.6736 155.09 19.2592 155.505 18.7123L157.161 20.4811C156.879 20.9083 156.497 21.3185 156.015 21.7115C155.542 22.1046 154.969 22.425 154.297 22.6729C153.625 22.9121 152.849 23.0317 151.969 23.0317Z" fill="#606060"/>
<path d="M163.934 20.2119L167.072 8.90698H170.509L165.889 22.7754H163.797L163.934 20.2119ZM161.643 8.90698L164.818 20.2375L164.93 22.7754H162.826L158.194 8.90698H161.643Z" fill="#606060"/>
<path d="M175.726 8.90698V22.7754H172.426V8.90698H175.726ZM172.202 5.27966C172.202 4.77551 172.368 4.35681 172.7 4.02356C173.04 3.69031 173.497 3.52368 174.07 3.52368C174.642 3.52368 175.095 3.69031 175.427 4.02356C175.767 4.35681 175.937 4.77551 175.937 5.27966C175.937 5.77527 175.767 6.1897 175.427 6.52295C175.095 6.8562 174.642 7.02283 174.07 7.02283C173.497 7.02283 173.04 6.8562 172.7 6.52295C172.368 6.1897 172.202 5.77527 172.202 5.27966Z" fill="#606060"/>
<path d="M184.915 23.0317C183.894 23.0317 182.976 22.8608 182.163 22.519C181.349 22.1772 180.656 21.703 180.083 21.0963C179.519 20.4811 179.083 19.7676 178.776 18.9558C178.477 18.1355 178.328 17.2554 178.328 16.3154V15.8027C178.328 14.7346 178.477 13.7648 178.776 12.8932C179.075 12.0131 179.498 11.2568 180.046 10.6245C180.594 9.99219 181.25 9.50513 182.013 9.16333C182.777 8.82153 183.62 8.65063 184.541 8.65063C185.496 8.65063 186.338 8.81726 187.069 9.15051C187.799 9.47522 188.409 9.93665 188.899 10.5348C189.389 11.1329 189.758 11.8507 190.007 12.6881C190.256 13.517 190.381 14.4355 190.381 15.4438V16.8666H179.822V14.5338H187.143V14.2775C187.127 13.7391 187.027 13.2478 186.844 12.8035C186.662 12.3506 186.38 11.9917 185.998 11.7268C185.616 11.4534 185.122 11.3167 184.516 11.3167C184.026 11.3167 183.599 11.4277 183.234 11.6499C182.877 11.8635 182.578 12.1711 182.337 12.5728C182.105 12.9658 181.93 13.4358 181.814 13.9827C181.698 14.5295 181.64 15.1362 181.64 15.8027V16.3154C181.64 16.8965 181.715 17.4348 181.864 17.9304C182.022 18.426 182.25 18.8575 182.549 19.225C182.856 19.5839 183.221 19.8658 183.645 20.0709C184.076 20.2675 184.566 20.3657 185.114 20.3657C185.803 20.3657 186.425 20.229 186.981 19.9556C187.546 19.6736 188.036 19.2592 188.451 18.7123L190.107 20.4811C189.824 20.9083 189.443 21.3185 188.961 21.7115C188.488 22.1046 187.915 22.425 187.243 22.6729C186.571 22.9121 185.794 23.0317 184.915 23.0317Z" fill="#606060"/>
<path d="M196.332 19.4429L199.283 8.90698H201.375L200.752 12.5471L197.777 22.7754H195.971L196.332 19.4429ZM194.701 8.90698L196.917 19.4685L197.117 22.7754H195.037L191.501 8.90698H194.701ZM204.114 19.3147L206.281 8.90698H209.468L205.957 22.7754H203.878L204.114 19.3147ZM201.699 8.90698L204.625 19.3403L205.011 22.7754H203.205L200.205 12.5471L199.594 8.90698H201.699Z" fill="#606060"/>
<path d="M218.819 18.9814C218.819 18.6909 218.744 18.4303 218.595 18.1996C218.446 17.9689 218.163 17.7595 217.748 17.5715C217.342 17.375 216.744 17.1913 215.955 17.0204C215.258 16.8666 214.615 16.6743 214.025 16.4436C213.436 16.2129 212.93 15.9352 212.506 15.6105C212.083 15.2772 211.751 14.8884 211.51 14.4441C211.278 13.9912 211.162 13.47 211.162 12.8804C211.162 12.3079 211.282 11.7695 211.523 11.2654C211.763 10.7527 212.112 10.3041 212.569 9.91956C213.025 9.52649 213.581 9.21887 214.237 8.9967C214.893 8.76599 215.632 8.65063 216.453 8.65063C217.599 8.65063 218.583 8.8429 219.404 9.22742C220.234 9.61194 220.869 10.1417 221.309 10.8168C221.749 11.4833 221.969 12.2352 221.969 13.0726H218.682C218.682 12.7052 218.599 12.3719 218.433 12.0729C218.275 11.7738 218.031 11.5345 217.698 11.3551C217.366 11.1671 216.947 11.0731 216.441 11.0731C215.984 11.0731 215.598 11.15 215.283 11.3038C214.976 11.4576 214.743 11.6584 214.586 11.9062C214.428 12.1541 214.349 12.4275 214.349 12.7266C214.349 12.9487 214.391 13.1495 214.474 13.329C214.565 13.4999 214.71 13.658 214.909 13.8032C215.109 13.9485 215.378 14.0809 215.719 14.2006C216.067 14.3202 216.495 14.4355 217.001 14.5466C218.006 14.7517 218.881 15.0251 219.628 15.3669C220.384 15.7002 220.973 16.1445 221.396 16.7C221.82 17.2554 222.031 17.9646 222.031 18.8276C222.031 19.4429 221.903 20.0068 221.646 20.5195C221.388 21.0237 221.015 21.4637 220.525 21.8397C220.035 22.2157 219.45 22.5105 218.769 22.7241C218.089 22.9292 217.321 23.0317 216.466 23.0317C215.229 23.0317 214.183 22.8053 213.328 22.3524C212.473 21.891 211.826 21.3099 211.386 20.6093C210.946 19.9 210.726 19.1652 210.726 18.4047H213.876C213.901 18.943 214.042 19.3745 214.299 19.6992C214.557 20.0239 214.88 20.2589 215.271 20.4042C215.669 20.5409 216.088 20.6093 216.528 20.6093C217.026 20.6093 217.445 20.5409 217.786 20.4042C218.126 20.2589 218.383 20.0667 218.558 19.8274C218.732 19.5796 218.819 19.2976 218.819 18.9814Z" fill="#606060"/>
<g clip-path="url(#clip0_312_19)">
<mask id="mask0_312_19" style="mask-type:luminance" maskUnits="userSpaceOnUse" x="0" y="0" width="30" height="31">
<path d="M29.446 12.6337H15.4688V18.5996H23.5142C22.7642 22.3897 19.6278 24.5655 15.4688 24.5655C10.5597 24.5655 6.60512 20.4947 6.60512 15.4412C6.60512 10.3877 10.5597 6.31685 15.4688 6.31685C17.5824 6.31685 19.4915 7.0889 20.9915 8.35227L25.3551 3.8603C22.696 1.47393 19.2869 0 15.4688 0C7.15057 0 0.46875 6.87834 0.46875 15.4412C0.46875 24.004 7.15057 30.8824 15.4688 30.8824C22.9688 30.8824 29.7869 25.2674 29.7869 15.4412C29.7869 14.5287 29.6506 13.5461 29.446 12.6337Z" fill="white"/>
</mask>
<g mask="url(#mask0_312_19)">
<path d="M-0.894775 24.5656V6.31689L10.6961 15.4412L-0.894775 24.5656Z" fill="#FBBC05"/>
</g>
<mask id="mask1_312_19" style="mask-type:luminance" maskUnits="userSpaceOnUse" x="0" y="0" width="30" height="31">
<path d="M29.446 12.6337H15.4688V18.5996H23.5142C22.7642 22.3897 19.6278 24.5655 15.4688 24.5655C10.5597 24.5655 6.60512 20.4947 6.60512 15.4412C6.60512 10.3877 10.5597 6.31685 15.4688 6.31685C17.5824 6.31685 19.4915 7.0889 20.9915 8.35227L25.3551 3.8603C22.696 1.47393 19.2869 0 15.4688 0C7.15057 0 0.46875 6.87834 0.46875 15.4412C0.46875 24.004 7.15057 30.8824 15.4688 30.8824C22.9688 30.8824 29.7869 25.2674 29.7869 15.4412C29.7869 14.5287 29.6506 13.5461 29.446 12.6337Z" fill="white"/>
</mask>
<g mask="url(#mask1_312_19)">
<path d="M-0.894775 6.31678L10.6961 15.4411L15.4689 11.1597L31.8325 8.4224V-1.40381H-0.894775V6.31678Z" fill="#EA4335"/>
</g>
<mask id="mask2_312_19" style="mask-type:luminance" maskUnits="userSpaceOnUse" x="0" y="0" width="30" height="31">
<path d="M29.446 12.6337H15.4688V18.5996H23.5142C22.7642 22.3897 19.6278 24.5655 15.4688 24.5655C10.5597 24.5655 6.60512 20.4947 6.60512 15.4412C6.60512 10.3877 10.5597 6.31685 15.4688 6.31685C17.5824 6.31685 19.4915 7.0889 20.9915 8.35227L25.3551 3.8603C22.696 1.47393 19.2869 0 15.4688 0C7.15057 0 0.46875 6.87834 0.46875 15.4412C0.46875 24.004 7.15057 30.8824 15.4688 30.8824C22.9688 30.8824 29.7869 25.2674 29.7869 15.4412C29.7869 14.5287 29.6506 13.5461 29.446 12.6337Z" fill="white"/>
</mask>
<g mask="url(#mask2_312_19)">
<path d="M-0.894775 24.5655L19.5598 8.4224L24.9461 9.12427L31.8325 -1.40381V32.286H-0.894775V24.5655Z" fill="#34A853"/>
</g>
<mask id="mask3_312_19" style="mask-type:luminance" maskUnits="userSpaceOnUse" x="0" y="0" width="30" height="31">
<path d="M29.446 12.6337H15.4688V18.5996H23.5142C22.7642 22.3897 19.6278 24.5655 15.4688 24.5655C10.5597 24.5655 6.60512 20.4947 6.60512 15.4412C6.60512 10.3877 10.5597 6.31685 15.4688 6.31685C17.5824 6.31685 19.4915 7.0889 20.9915 8.35227L25.3551 3.8603C22.696 1.47393 19.2869 0 15.4688 0C7.15057 0 0.46875 6.87834 0.46875 15.4412C0.46875 24.004 7.15057 30.8824 15.4688 30.8824C22.9688 30.8824 29.7869 25.2674 29.7869 15.4412C29.7869 14.5287 29.6506 13.5461 29.446 12.6337Z" fill="white"/>
</mask>
<g mask="url(#mask3_312_19)">
<path d="M31.8324 32.2862L10.696 15.4412L7.96875 13.3356L31.8324 6.31689V32.2862Z" fill="#4285F4"/>
</g>
</g>
<defs>
<clipPath id="clip0_312_19">
<rect width="30" height="30.8824" fill="white"/>
</clipPath>
</defs>
</svg>