<svg width="144" height="20" viewBox="0 0 144 20" fill="none" xmlns="http://www.w3.org/2000/svg">
<path d="M140.483 14.686C139.116 15.0142 137.69 14.9983 136.33 14.6397C134.971 14.2811 133.722 13.5911 132.695 12.6313C131.668 11.6716 130.895 10.4721 130.445 9.14026C129.996 7.80845 129.883 6.3859 130.118 5C130.082 5.03452 130.045 5.0669 130.005 5.097C129.725 5.31 129.375 5.389 128.675 5.547L128.04 5.691C125.58 6.248 124.35 6.526 124.057 7.467C123.765 8.407 124.603 9.388 126.28 11.349L126.714 11.856C127.19 12.413 127.429 12.692 127.536 13.036C127.643 13.381 127.607 13.753 127.535 14.496L127.469 15.173C127.216 17.79 127.089 19.098 127.855 19.679C128.621 20.261 129.773 19.731 132.075 18.67L132.672 18.396C133.326 18.094 133.653 17.944 134 17.944C134.347 17.944 134.674 18.094 135.329 18.396L135.924 18.67C138.227 19.73 139.379 20.26 140.144 19.68C140.911 19.098 140.784 17.79 140.531 15.173L140.483 14.686Z" fill="#FFA300"/>
<path opacity="0.5" d="M131.155 3.408L130.827 3.996C130.467 4.642 130.287 4.965 130.007 5.178C130.047 5.148 130.084 5.116 130.12 5.081C129.885 6.46701 129.997 7.88967 130.447 9.22158C130.897 10.5535 131.67 11.7531 132.697 12.7128C133.724 13.6726 134.973 14.3627 136.332 14.7212C137.692 15.0797 139.119 15.0954 140.486 14.767L140.466 14.577C140.395 13.834 140.359 13.462 140.466 13.117C140.573 12.773 140.811 12.494 141.288 11.937L141.722 11.43C143.399 9.47 144.237 8.489 143.944 7.548C143.652 6.607 142.422 6.328 139.962 5.772L139.326 5.628C138.627 5.47 138.277 5.391 137.996 5.178C137.716 4.965 137.536 4.642 137.176 3.996L136.849 3.408C135.582 1.136 134.949 0 134.002 0C133.055 0 132.422 1.136 131.155 3.408Z" fill="#FFA300"/>
<path d="M7.15323 3.408C8.42023 1.136 9.05323 0 10.0002 0C10.9472 0 11.5802 1.136 12.8472 3.408L13.1752 3.996C13.5352 4.642 13.7152 4.965 13.9952 5.178C14.2752 5.391 14.6252 5.47 15.3252 5.628L15.9612 5.772C18.4212 6.329 19.6502 6.607 19.9432 7.548C20.2352 8.488 19.3972 9.469 17.7202 11.43L17.2862 11.937C16.8102 12.494 16.5712 12.773 16.4642 13.117C16.3572 13.462 16.3932 13.834 16.4652 14.577L16.5312 15.254C16.7842 17.871 16.9112 19.179 16.1452 19.76C15.3792 20.342 14.2272 19.811 11.9252 18.751L11.3282 18.477C10.6742 18.175 10.3472 18.025 10.0002 18.025C9.65323 18.025 9.32623 18.175 8.67223 18.477L8.07623 18.751C5.77323 19.811 4.62123 20.341 3.85624 19.761C3.08924 19.179 3.21623 17.871 3.46923 15.254L3.53523 14.578C3.60723 13.834 3.64323 13.462 3.53523 13.118C3.42923 12.773 3.19024 12.494 2.71424 11.938L2.28024 11.43C0.603235 9.47 -0.234765 8.489 0.057235 7.548C0.350235 6.607 1.58024 6.328 4.04024 5.772L4.67624 5.628C5.37524 5.47 5.72424 5.391 6.00524 5.178C6.28524 4.965 6.46523 4.642 6.82523 3.996L7.15323 3.408Z" fill="#FFA300"/>
<path d="M38.1532 3.408C39.4202 1.136 40.0532 0 41.0002 0C41.9472 0 42.5802 1.136 43.8472 3.408L44.1752 3.996C44.5352 4.642 44.7152 4.965 44.9952 5.178C45.2752 5.391 45.6252 5.47 46.3252 5.628L46.9612 5.772C49.4212 6.329 50.6502 6.607 50.9432 7.548C51.2352 8.488 50.3972 9.469 48.7202 11.43L48.2862 11.937C47.8102 12.494 47.5712 12.773 47.4642 13.117C47.3572 13.462 47.3932 13.834 47.4652 14.577L47.5312 15.254C47.7842 17.871 47.9112 19.179 47.1452 19.76C46.3792 20.342 45.2272 19.811 42.9252 18.751L42.3282 18.477C41.6742 18.175 41.3472 18.025 41.0002 18.025C40.6532 18.025 40.3262 18.175 39.6722 18.477L39.0762 18.751C36.7732 19.811 35.6212 20.341 34.8562 19.761C34.0892 19.179 34.2162 17.871 34.4692 15.254L34.5352 14.578C34.6072 13.834 34.6432 13.462 34.5352 13.118C34.4292 12.773 34.1902 12.494 33.7142 11.938L33.2802 11.43C31.6032 9.47 30.7652 8.489 31.0572 7.548C31.3502 6.607 32.5802 6.328 35.0402 5.772L35.6762 5.628C36.3752 5.47 36.7242 5.391 37.0052 5.178C37.2852 4.965 37.4652 4.642 37.8252 3.996L38.1532 3.408Z" fill="#FFA300"/>
<path d="M69.1532 3.408C70.4202 1.136 71.0532 0 72.0002 0C72.9472 0 73.5802 1.136 74.8472 3.408L75.1752 3.996C75.5352 4.642 75.7152 4.965 75.9952 5.178C76.2752 5.391 76.6252 5.47 77.3252 5.628L77.9612 5.772C80.4212 6.329 81.6502 6.607 81.9432 7.548C82.2352 8.488 81.3972 9.469 79.7202 11.43L79.2862 11.937C78.8102 12.494 78.5712 12.773 78.4642 13.117C78.3572 13.462 78.3932 13.834 78.4652 14.577L78.5312 15.254C78.7842 17.871 78.9112 19.179 78.1452 19.76C77.3792 20.342 76.2272 19.811 73.9252 18.751L73.3282 18.477C72.6742 18.175 72.3472 18.025 72.0002 18.025C71.6532 18.025 71.3262 18.175 70.6722 18.477L70.0762 18.751C67.7732 19.811 66.6212 20.341 65.8562 19.761C65.0892 19.179 65.2162 17.871 65.4692 15.254L65.5352 14.578C65.6072 13.834 65.6432 13.462 65.5352 13.118C65.4292 12.773 65.1902 12.494 64.7142 11.938L64.2802 11.43C62.6032 9.47 61.7652 8.489 62.0572 7.548C62.3502 6.607 63.5802 6.328 66.0402 5.772L66.6762 5.628C67.3752 5.47 67.7242 5.391 68.0052 5.178C68.2852 4.965 68.4652 4.642 68.8252 3.996L69.1532 3.408Z" fill="#FFA300"/>
<path d="M100.153 3.408C101.42 1.136 102.053 0 103 0C103.947 0 104.58 1.136 105.847 3.408L106.175 3.996C106.535 4.642 106.715 4.965 106.995 5.178C107.275 5.391 107.625 5.47 108.325 5.628L108.961 5.772C111.421 6.329 112.65 6.607 112.943 7.548C113.235 8.488 112.397 9.469 110.72 11.43L110.286 11.937C109.81 12.494 109.571 12.773 109.464 13.117C109.357 13.462 109.393 13.834 109.465 14.577L109.531 15.254C109.784 17.871 109.911 19.179 109.145 19.76C108.379 20.342 107.227 19.811 104.925 18.751L104.328 18.477C103.674 18.175 103.347 18.025 103 18.025C102.653 18.025 102.326 18.175 101.672 18.477L101.076 18.751C98.7732 19.811 97.6212 20.341 96.8562 19.761C96.0892 19.179 96.2162 17.871 96.4692 15.254L96.5352 14.578C96.6072 13.834 96.6432 13.462 96.5352 13.118C96.4292 12.773 96.1902 12.494 95.7142 11.938L95.2802 11.43C93.6032 9.47 92.7652 8.489 93.0572 7.548C93.3502 6.607 94.5802 6.328 97.0402 5.772L97.6762 5.628C98.3752 5.47 98.7242 5.391 99.0052 5.178C99.2852 4.965 99.4652 4.642 99.8252 3.996L100.153 3.408Z" fill="#FFA300"/>
</svg>
