<svg xmlns="http://www.w3.org/2000/svg" width="1301.37" height="521.546" viewBox="0 0 1301.37 521.546" xmlns:xlink="http://www.w3.org/1999/xlink" role="img" artist="Katerina Limpitsouni" source="https://undraw.co/">
  <g id="Group_32" data-name="Group 32" transform="translate(-233 -329.671)">
    <g id="Group_25" data-name="Group 25" transform="translate(-415.998 -59.769)">
      <g id="Group_6" data-name="Group 6" transform="translate(974.482 389.441)">
        <path id="Path_185-2169" data-name="Path 185" d="M689.062,483.817H862.815V395.855H689.062Z" transform="translate(-688.039 -394.832)" fill="#fff"/>
        <path id="Path_186-2170" data-name="Path 186" d="M862.72,483.722h-175.8V393.715h175.8ZM687.944,482.7H861.7V394.737H687.944Z" transform="translate(-686.922 -393.715)" fill="#3f3d56"/>
        <rect id="Rectangle_102" data-name="Rectangle 102" width="17.7" height="1.475" transform="translate(32.218 30.622)" fill="#63b5ff"/>
        <rect id="Rectangle_103" data-name="Rectangle 103" width="17.7" height="1.475" transform="translate(55.818 30.622)" fill="#63b5ff"/>
        <rect id="Rectangle_104" data-name="Rectangle 104" width="17.7" height="1.475" transform="translate(90.112 44.266)" fill="#63b5ff"/>
        <rect id="Rectangle_105" data-name="Rectangle 105" width="17.7" height="1.475" transform="translate(114.08 44.266)" fill="#63b5ff"/>
        <rect id="Rectangle_106" data-name="Rectangle 106" width="51.993" height="1.475" transform="translate(79.787 30.622)" fill="#63b5ff"/>
        <rect id="Rectangle_107" data-name="Rectangle 107" width="51.993" height="1.475" transform="translate(32.218 44.266)" fill="#63b5ff"/>
        <rect id="Rectangle_108" data-name="Rectangle 108" width="51.993" height="1.475" transform="translate(32.218 57.91)" fill="#63b5ff"/>
        <rect id="Rectangle_109" data-name="Rectangle 109" width="36.137" height="1.475" transform="translate(95.643 57.91)" fill="#63b5ff"/>
        <path id="Path_187-2171" data-name="Path 187" d="M596.345,380.946l-10.558-10.558,10.558-10.559,2.112,2.113-8.446,8.446,8.446,8.445Z" transform="translate(-572.507 -348.849)" fill="#63b5ff"/>
        <path id="Path_188-2172" data-name="Path 188" d="M852.236,441.144l-2.112-2.112,8.444-8.445-8.444-8.445,2.112-2.111,10.556,10.556Z" transform="translate(-696.559 -361.613)" fill="#63b5ff"/>
        <rect id="Rectangle_110" data-name="Rectangle 110" width="21.555" height="2.987" transform="translate(138.31 78.538) rotate(-73.14)" fill="#63b5ff"/>
      </g>
    </g>
    <path id="Path_189-2173" data-name="Path 189" d="M671.44,815.055h-381a1,1,0,0,1,0-2h381a1,1,0,0,1,0,2Z" transform="translate(-56.439 10.635)" fill="#f2f2f2"/>
    <g id="Group_5" data-name="Group 5" transform="translate(-1548.197 170.162)">
      <path id="Path_210-2174" data-name="Path 210" d="M453.479,725.349,454.754,740s7.915,18.667-2.734,18.626-13.571-1.916-13.571-1.916-4.258-.549-4.8,1.046-36.486,2.788-35.378-8.389S432.968,728.2,432.968,728.2l3.232-9.572Z" transform="translate(1516.86 -104.596)" fill="#090814"/>
      <path id="Path_201-2175" data-name="Path 201" d="M455.5,216.671l3.368-5.893-16.838-3.368-1.684,8.419,2.526,6.735Z" transform="translate(1627.35 80.023)" fill="#63b5ff"/>
      <path id="Path_202-2176" data-name="Path 202" d="M455.5,216.671l3.368-5.893-16.838-3.368-1.684,8.419,2.526,6.735Z" transform="translate(1627.35 80.023)" opacity="0.2"/>
      <circle id="Ellipse_52" data-name="Ellipse 52" cx="21.89" cy="21.89" r="21.89" transform="translate(2051.277 249.125)" fill="#ffb9b9"/>
      <path id="Path_203-2177" data-name="Path 203" d="M421.524,187.91l-17.68,29.467,26.1,15.155,13.471-31.151Z" transform="translate(1633.12 83.105)" fill="#ffb9b9"/>
      <path id="Path_204-2178" data-name="Path 204" d="M549.423,350.466,526.691,341.2S492.172,347.1,488.8,358.043s-3.368,99.346-3.368,99.346-8.419,21.89,3.368,22.732c0,0-3.368,5.051,0,5.893s37.886,0,51.357,4.21,40.412,7.577,40.412,3.368v-7.577s5.893-5.893,2.526-16-7.577-31.993-7.577-31.993,25.258-55.567,22.732-62.3-33.363-27.562-33.363-27.562Z" transform="translate(1503.538 -44.932)" fill="#63b5ff"/>
      <path id="Path_205-2179" data-name="Path 205" d="M360.844,354.487l.842,6.735,11.787-14.313h-4.21Z" transform="translate(1639.918 57.97)" fill="#ffb9b9"/>
      <path id="Path_206-2180" data-name="Path 206" d="M556.451,345.776l-24.416-5.893s-5.052-4.21-5.052-9.261,7.577-12.629,12.629-17.68A4.66,4.66,0,0,1,543,311.535c5-.042,11.063,6.516,11.063,6.516l-6.727,11.223-.3.5Z" transform="translate(1496.51 -40.242)" fill="#63b5ff"/>
      <path id="Path_207-2181" data-name="Path 207" d="M580.8,339.385l14.436-4.68s4.631,18.1-.421,18.943-32.835-1.684-32.835-1.684Z" transform="translate(1490.977 -43.905)" fill="#63b5ff"/>
      <path id="Path_208-2182" data-name="Path 208" d="M482.7,508.2l-10.945,62.3s-4.21,7.577-2.526,10.945,2.526,3.368,0,5.052-5.893,0-5.052,4.21a42.977,42.977,0,0,1,.842,7.577l-23.574,80.824s-15.155,6.735-4.21,10.945,21.89,7.577,24.416,3.368,0-9.261,0-9.261l38.728-92.611s5.893-8.419,5.893-13.471S525.64,536.83,525.64,536.83s.842,36.2,1.684,38.728-1.684,7.577-1.684,10.945-1.684,3.368,0,5.052,1.684,21.048,1.684,21.048-10.1,74.931-4.21,75.773,22.732-.842,22.732-4.21a4.2,4.2,0,0,0-2.526-4.21l10.945-63.986a13.4,13.4,0,0,1,.842-7.577c1.684-3.368,1.684-3.368,1.684-5.052s-.842-2.526,0-3.368a4.158,4.158,0,0,0,.842-2.526s-1.684-5.052-.842-5.893,19.364-63.986,13.471-71.563S482.7,508.2,482.7,508.2Z" transform="translate(1511.325 -71.332)" fill="#090814"/>
      <path id="Path_209-2183" data-name="Path 209" d="M538.54,719.047l-5.893,13.471s-13.471,15.154-3.368,18.522,13.471,2.526,13.471,2.526,4.21.842,4.21,2.526,33.677,14.313,36.2,3.368-26.1-31.151-26.1-31.151V718.2Z" transform="translate(1496.741 -104.529)" fill="#090814"/>
      <path id="Path_211-2184" data-name="Path 211" d="M559.589,311.111c1.352-.091,2.254-1.565,2.628-2.967s.469-2.939,1.233-4.144c2.093-3.3,7.535-1.968,9.745-5.18,1.359-1.976,1.075-5.192,3.037-6.449,1.239-.794,2.819-.385,4.184.114a45.722,45.722,0,0,1,14.41,8.582l1.758-1.431,2.2,4.39c.851-1.027,2.493-.231,3.208.911s1.061,2.6,2.08,3.431c1.624,1.325,4.16.2,5.144-1.719s.821-4.27.48-6.433a46.083,46.083,0,0,0-5.345-15.425l2.009-1.205-2.6-.371.994-2.255-2.721-.032L603.106,279c-3.658,1.255-7.437-1.044-10.931-2.758a31.218,31.218,0,0,0-18.761-3.178,23.715,23.715,0,0,0-16.041,10.42c-2.766,4.349-4.364,10.665-2.981,15.873C555.649,304.092,561.137,304.829,559.589,311.111Z" transform="translate(1492.257 -34.104)" fill="#090814"/>
      <path id="Path_212-2185" data-name="Path 212" d="M490.741,357.2s-5.052-.842-8.419,5.893-28.625,60.618-16,77.456,24.416,21.89,24.416,21.89l2.526.842L505.9,449.809l-4.21-5.893s0-5.893-3.368-6.735-3.368,1.684-4.21-1.684,3.368-.842-.842-4.21-.842-5.052-.842-5.052Z" transform="translate(1506.654 -47.455)" fill="#63b5ff"/>
      <path id="Path_213-2186" data-name="Path 213" d="M460.473,365.987l-.842,6.735L447.844,358.41h4.21Z" transform="translate(1626.165 56.152)" fill="#ffb9b9"/>
      <path id="Path_214-2187" data-name="Path 214" d="M598.508,378.257s11.787-5.893,15.154.842,26.52,57.25,13.892,74.089-24.416,21.89-24.416,21.89l-2.526.842-12.629-13.471,4.21-5.893s0-5.893,3.368-6.735,3.368,1.684,4.21-1.684-3.368-.842.842-4.21.842-5.052.842-5.052Z" transform="translate(1486.867 -50.412)" fill="#63b5ff"/>
      <path id="Path_215-2188" data-name="Path 215" d="M364.605,273.41l-9.261,37.044,10.945,13.471-5.052-16.838Z" transform="translate(1640.787 69.589)" opacity="0.2"/>
      <path id="Path_216-2189" data-name="Path 216" d="M557.056,318.051l-6.727,11.223c-4.226-1.465-4.58-11.273-4.336-17.739C550.994,311.493,557.056,318.051,557.056,318.051Z" transform="translate(1493.514 -40.242)" opacity="0.2"/>
    </g>
    <g id="Group_31" data-name="Group 31">
      <path id="Path_223-2190" data-name="Path 223" d="M304.558,539.028s8.987,14.254,5.778,18.114,24.081,3.956,24.081,3.956-4.1-20.736-2.893-25.508Z" transform="translate(478.861 123.394)" fill="#ffb9b9"/>
      <ellipse id="Ellipse_53" data-name="Ellipse 53" cx="28.182" cy="28.182" rx="28.182" ry="28.182" transform="translate(769.602 611.225)" fill="#090814"/>
      <path id="Path_224-2191" data-name="Path 224" d="M245.51,536.052v16.707l16.706-3.481-1.392-11.833Z" transform="translate(618.557 256.106)" fill="#ffb9b9"/>
      <path id="Path_225-2192" data-name="Path 225" d="M470.855,699.038l46.639,7.657L505.66,724.1S472.943,712.96,464.59,712.96,470.855,699.038,470.855,699.038Z" transform="translate(452.381 95.905)" fill="#ffb9b9"/>
      <path id="Path_226-2193" data-name="Path 226" d="M343.752,651.112s34.806-40.374,45.943-38.286,16.011,14.618,16.011,14.618l6.265,61.954s-22.276,2.088-22.276,0-4.177-46.639-4.177-46.639-32.717,72.4-50.12,24.364Z" transform="translate(473.675 110.417)" fill="#d6d6e3"/>
      <path id="Path_227-2194" data-name="Path 227" d="M277.656,686.48s.7,36.469,21.579,38.557,43.855-15.586,43.855-15.586l37.59-18.008s44.551,23.577,57.777,17.312c0,0,13.922-14.618,4.873-18.795s-.7,0-.7,0l-53.6-27.844s-10.442-2.784-28.54,4.873-42.463,11.138-42.463,11.138Z" transform="translate(483.386 102.197)" fill="#d6d6e3"/>
      <ellipse id="Ellipse_54" data-name="Ellipse 54" cx="20.883" cy="20.883" rx="20.883" ry="20.883" transform="translate(774.964 627.876)" fill="#ffb9b9"/>
      <path id="Path_228-2195" data-name="Path 228" d="M341.167,586.271l-1.392,29.237s.7,38.286-5.569,41.07c-3.167,1.406-9.53,4.232-15.412,7.323-4.413,2.311-8.555,4.761-10.866,6.871a7.794,7.794,0,0,0-1.566,1.817c-2.784,4.873-20.883,4.177-25.06.7s-1.392,4.177-4.873,5.569c-3.369,1.35-8.04-9.69-5.179-26.174.091-.55.195-1.107.306-1.671,3.2-15.976-1.824-54.241-1.051-69.026a26.019,26.019,0,0,1,.355-3.369c2.088-11.138,28.735-33.8,33.72-24.148,6.14,11.917,20.243,1.03,22.665-4.392,13.922-.7,18.795,16.01,18.795,16.01Z" transform="translate(484.613 120.961)" fill="#63b5ff"/>
      <path id="Path_229-2196" data-name="Path 229" d="M418.629,708.243s-11.138,4.177-14.618,3.48-6.961,2.088-6.961,6.265-4.177,13.922,2.088,14.618,32.021-.7,37.59,1.392c0,0,25.06.7,22.972-9.745s-12.53-9.746-12.53-9.746S418.629,713.116,418.629,708.243Z" transform="translate(463.535 94.357)" fill="#090814"/>
      <path id="Path_230-2197" data-name="Path 230" d="M518.318,709.909s1.392-4.177,3.481-4.177,18.795,2.784,20.883,2.088,26.452-2.088,22.276,9.745-18.1,13.226-18.1,13.226-25.06-2.784-28.541-2.088-16.011,0-13.922-3.481S519.71,715.478,518.318,709.909Z" transform="translate(445.292 94.779)" fill="#090814"/>
      <path id="Path_231-2198" data-name="Path 231" d="M441.4,590.4l3.819,15.753a.984.984,0,0,1-.019.532L427.874,660.82a.984.984,0,0,1-1.915-.189l-2.4-21.089a.984.984,0,0,1,.042-.416l15.9-48.8a.984.984,0,0,1,1.892.073Z" transform="translate(458.849 114.302)" fill="#080712"/>
      <path id="Path_232-2199" data-name="Path 232" d="M284.227,432.512l3.526,13.516-15.28,49.363-3.526-15.279Z" transform="translate(614.614 273.52)" fill="#fff"/>
      <path id="Path_233-2200" data-name="Path 233" d="M350.745,674.994c.588,1.763,61.117-.588,61.7-1.175a12.761,12.761,0,0,0,1.293-2.351c.552-1.175,1.058-2.351,1.058-2.351l-2.351-19.028-59.941-2.127s-1.5,16.125-1.8,23.506A17.633,17.633,0,0,0,350.745,674.994Z" transform="translate(471.112 104.495)" fill="#090814"/>
      <path id="Path_234-2201" data-name="Path 234" d="M254.654,493.975l1.175,16.455H229.385V493.975Z" transform="translate(621.268 263.183)" opacity="0.1"/>
      <path id="Path_235-2202" data-name="Path 235" d="M215.7,500.328l.158-.032-.746,7.083H200.419v-7.051Z" transform="translate(626.14 262.12)" opacity="0.1"/>
      <path id="Path_236-2203" data-name="Path 236" d="M350.745,679.747c.588,1.763,61.117-.588,61.7-1.175a12.761,12.761,0,0,0,1.293-2.351H350.7A17.633,17.633,0,0,0,350.745,679.747Z" transform="translate(471.112 99.742)" opacity="0.1"/>
      <ellipse id="Ellipse_55" data-name="Ellipse 55" cx="7.854" cy="7.854" rx="7.854" ry="7.854" transform="translate(794.599 600.744)" fill="#090814"/>
      <path id="Path_237-2204" data-name="Path 237" d="M317.52,485.295s-8.024,13.347-26.683,18.344-.152,33.036-.152,33.036-6.73-10.2,2.977-20.994S318.988,497.5,317.52,485.295Z" transform="translate(482.57 131.853)" fill="#090814"/>
      <path id="Path_238-2205" data-name="Path 238" d="M318.807,669.958c-1.719,3.251-3.738,6.627-4.079,7.991-.23.926-2.777.39-6.787-1.121-8.04-3.042-21.976-10.01-34.98-16.978a10.981,10.981,0,0,1-1.7-1.114c.091-.55.195-1.107.306-1.671,3.2-15.976-1.824-54.241-1.051-69.026l5.924-1.977L288.275,597.2v47.335s30.629,16.707,32.717,18.1C322.058,663.345,320.589,666.582,318.807,669.958Z" transform="translate(484.601 114.905)" opacity="0.1"/>
      <path id="Path_239-2206" data-name="Path 239" d="M358.111,641.242l18.795,9.746s11.138-11.834,18.1-2.784-20.187,11.834-20.187,11.834-23.668-5.569-24.364-13.226S358.111,641.242,358.111,641.242Z" transform="translate(471.149 105.669)" fill="#ffb9b9"/>
      <path id="Path_240-2207" data-name="Path 240" d="M321.116,670.6l11.138,2.784s12.53-15.314,25.756-9.745S341.3,680.35,341.3,680.35s-16.011,8.353-22.276,1.392S321.116,670.6,321.116,670.6Z" transform="translate(476.82 102.063)" fill="#ffb9b9"/>
      <path id="Path_241-2208" data-name="Path 241" d="M349.188,561.794c.7.7,8.353,6.265,8.353,6.265s2.088,26.452-.7,32.021-4.873,5.569-2.784,8.353,4.873.7,2.088,5.569-5.569,4.177-3.481,6.265,1.392,2.784,1.392,2.784l8.353,6.961s-5.125,8.163-11.612,7.562-12.056-31.926-12.056-31.926Z" transform="translate(473.111 118.987)" fill="#63b5ff"/>
      <path id="Path_242-2209" data-name="Path 242" d="M275.042,581.878l-6.265,2.088s-16.707,61.258,2.784,71.7,41.07,20.883,41.767,18.1,8.353-13.922,6.265-15.314-32.717-18.1-32.717-18.1V593.016Z" transform="translate(486 115.609)" fill="#63b5ff"/>
      <path id="Path_243-2210" data-name="Path 243" d="M132.672,452.785,131.28,486.2l36.894,17.4-34.11-17.4Z" transform="translate(637.768 270.11)" opacity="0.1"/>
      <g id="Group_26" data-name="Group 26" transform="translate(-514.432 287.504)">
        <path id="Path_244-2211" data-name="Path 244" d="M711.524,191.3v15.545a.543.543,0,0,1-.542.542H710.6v80.979a8.45,8.45,0,0,1-8.449,8.449h-50.6a8.448,8.448,0,0,1-8.447-8.449V210.223h-.279a.383.383,0,0,1-.383-.381V201a.383.383,0,0,1,.383-.383h.279v-3.332h-.282a.4.4,0,0,1-.4-.4v-8.726a.4.4,0,0,1,.4-.4h.282V183.2h-.286a.355.355,0,0,1-.355-.355v-4.762a.357.357,0,0,1,.355-.357h.286v-9.642a8.447,8.447,0,0,1,8.447-8.447h50.6a8.449,8.449,0,0,1,8.449,8.447v22.669h.386a.543.543,0,0,1,.542.542Z" transform="translate(783 112.147)" fill="#090814"/>
        <rect id="Rectangle_111" data-name="Rectangle 111" width="9.425" height="1.914" rx="0.957" transform="translate(1453.462 275.645)" fill="#e6e8ec"/>
        <circle id="Ellipse_56" data-name="Ellipse 56" cx="1.086" cy="1.086" r="1.086" transform="translate(1464.312 275.516)" fill="#e6e8ec"/>
        <path id="Path_245-2212" data-name="Path 245" d="M726.137,185.191V306.547a5.571,5.571,0,0,1-5.682,5.45H669.117a5.8,5.8,0,0,1-4.02-1.593,5.334,5.334,0,0,1-1.662-3.857V185.191a5.571,5.571,0,0,1,5.682-5.453H676.8v.946a4.587,4.587,0,0,0,4.678,4.49h26.11a4.587,4.587,0,0,0,4.679-4.49v-.946h8.188a5.569,5.569,0,0,1,5.682,5.453Z" transform="translate(765.186 94.581)" fill="#fff"/>
        <path id="Path_250-2213" data-name="Path 250" d="M1.893,0H47.335a1.893,1.893,0,0,1,1.893,1.893V4.5A1.893,1.893,0,0,1,47.335,6.39H1.893A1.893,1.893,0,0,1,0,4.5v-2.6A1.893,1.893,0,0,1,1.893,0Z" transform="translate(1435.457 355.086)" fill="#e6e6e6"/>
        <path id="Path_251-2214" data-name="Path 251" d="M1.893,0H47.335a1.893,1.893,0,0,1,1.893,1.893V4.5A1.893,1.893,0,0,1,47.335,6.39H1.893A1.893,1.893,0,0,1,0,4.5v-2.6A1.893,1.893,0,0,1,1.893,0Z" transform="translate(1435.457 366.446)" fill="#e6e6e6"/>
        <path id="Path_252-2215" data-name="Path 252" d="M1.893,0H47.335a1.893,1.893,0,0,1,1.893,1.893V4.5A1.893,1.893,0,0,1,47.335,6.39H1.893A1.893,1.893,0,0,1,0,4.5v-2.6A1.893,1.893,0,0,1,1.893,0Z" transform="translate(1435.457 377.807)" fill="#e6e6e6"/>
        <circle id="Ellipse_57" data-name="Ellipse 57" cx="4.734" cy="4.734" r="4.734" transform="translate(1474.508 288.58)" fill="#63b5ff"/>
        <path id="Path_253-2216" data-name="Path 253" d="M1.893,0H47.335a1.893,1.893,0,0,1,1.893,1.893V30.768a1.893,1.893,0,0,1-1.893,1.893H1.893A1.893,1.893,0,0,1,0,30.768V1.893A1.893,1.893,0,0,1,1.893,0Z" transform="translate(1435.358 309.171)" fill="#e6e6e6"/>
        <path id="Path_246-2217" data-name="Path 246" d="M765.835,360.88c1.437,5.313,6.361,8.6,6.361,8.6s2.593-5.324,1.156-10.637-6.361-8.6-6.361-8.6S764.4,355.567,765.835,360.88Z" transform="translate(687.599 -33.346)" fill="#090814"/>
        <path id="Path_247-2218" data-name="Path 247" d="M744.368,376.939c3.944,3.839,4.426,9.742,4.426,9.742s-5.913-.323-9.857-4.162-4.426-9.742-4.426-9.742S740.424,373.1,744.368,376.939Z" transform="translate(711.178 -50.546)" fill="#63b5ff"/>
        <path id="Path_248-2219" data-name="Path 248" d="M796.843,360.88c-1.437,5.313-6.361,8.6-6.361,8.6s-2.593-5.324-1.156-10.637,6.361-8.6,6.361-8.6S798.281,355.567,796.843,360.88Z" transform="translate(669.667 -33.346)" fill="#090814"/>
        <path id="Path_249-2220" data-name="Path 249" d="M799.286,376.939c-3.944,3.839-4.426,9.742-4.426,9.742s5.913-.323,9.857-4.162,4.426-9.742,4.426-9.742S803.23,373.1,799.286,376.939Z" transform="translate(665.112 -50.546)" fill="#63b5ff"/>
      </g>
      <rect id="Rectangle_116" data-name="Rectangle 116" width="364" height="2.241" transform="translate(714 827.268)" fill="#ccc"/>
    </g>
    <g id="Group_30" data-name="Group 30" transform="translate(-10 9)">
      <path id="Path_526-2221" data-name="Path 526" d="M538.687,815.029h-248.6c-.36,0-.652-.442-.652-.987s.292-.987.652-.987h248.6c.36,0,.652.442.652.987S539.048,815.029,538.687,815.029Z" transform="translate(885.561 -1.766)" fill="#f2f2f2"/>
      <g id="Group_28" data-name="Group 28" transform="translate(1193.954 437.763)">
        <path id="Path_504-2222" data-name="Path 504" d="M553.189,165.087a1.594,1.594,0,0,0,1.869-.772c1.5-2.367-1.264-5.42-.665-8.159.48-2.194,2.973-3.5,3.483-5.685.5-2.126-1.031-4.522,0-6.445.808-1.507,2.827-1.9,4.517-1.639s3.293,1.007,5,1.111c2.274.139,4.442-.863,6.666-1.359s4.937-.3,6.245,1.564c1.68,2.4-.024,5.731.561,8.6.464,2.276,2.37,4.161,2.411,6.484.015.826-2.156.161-2.04.978s-.91.1-.091,0a1.624,1.624,0,0,0,1.234-1.468c.1-.681,1.377-.908,1.363-1.6-.035-1.612,2.88-.525,3.36-2.064a15.609,15.609,0,0,0-.638-10.889,21.808,21.808,0,0,1-1.859-4.428c-.428-2.137.245-4.432-.461-6.494-.952-2.779-4.1-4.2-7.024-4.484s-5.894.227-8.8-.2c-2.6-.38-5.125-1.509-7.751-1.345-3.152.2-5.894,2.227-8.078,4.507s-4.038,4.9-6.519,6.855a12.783,12.783,0,0,0-2.09,1.8,7.021,7.021,0,0,0-1.04,5.694c.352,1.961,1.116,3.831,1.439,5.8.3,1.847.21,3.735.341,5.6a9.847,9.847,0,0,0,1.643,5.288,4.991,4.991,0,0,0,3.884,2.029c.526.012.97-.46,1.5-.337C552.311,164.187,552.6,164.817,553.189,165.087Z" transform="translate(-502.444 -124.834)" fill="#2f2e41"/>
        <path id="Path_505-2223" data-name="Path 505" d="M318.546,393.667l1.949,11.974,3.9-5.291-2.228-8.075Z" transform="translate(-290.295 -217.698)" fill="#9f616a"/>
        <path id="Path_506-2224" data-name="Path 506" d="M521.56,272.651l-3.069,8.088s-3.057,41.2-3.057,44.262,2.228,42.326,3.063,44c0,0,3.62-5.291,8.354-4.455s2.785-13.923,2.785-13.923l4.455-36.478-.835-18.378Z" transform="translate(-490.802 -187.181)" fill="#63b5ff"/>
        <path id="Path_507-2225" data-name="Path 507" d="M521.56,272.651l-3.069,8.088s-3.057,41.2-3.057,44.262,2.228,42.326,3.063,44c0,0,3.62-5.291,8.354-4.455s2.785-13.923,2.785-13.923l4.455-36.478-.835-18.378Z" transform="translate(-490.802 -187.181)" fill="#090814" opacity="0.1"/>
        <path id="Path_508-2226" data-name="Path 508" d="M559.2,190.589s9.189,23.391,3.9,27.846,29.517-7.518,29.517-7.518l-.835-3.063s-11.417-4.455-5.848-17.264S559.2,190.589,559.2,190.589Z" transform="translate(-509.509 -149.672)" fill="#9f616a"/>
        <path id="Path_509-2227" data-name="Path 509" d="M559.2,190.589s9.189,23.391,3.9,27.846,29.517-7.518,29.517-7.518l-.835-3.063s-11.417-4.455-5.848-17.264S559.2,190.589,559.2,190.589Z" transform="translate(-509.509 -149.672)" opacity="0.1"/>
        <path id="Path_510-2228" data-name="Path 510" d="M507.628,740.332s-3.9-1.114-6.126,1.671-10.581,9.746-10.581,9.746-16.151-1.671-18.378,6.4,25.34,8.075,32.023,6.126,8.075,0,8.075,0,20.606,1.671,20.606-1.671-1.949-14.758-1.949-14.758Z" transform="translate(-472.414 -386.985)" fill="#090814"/>
        <path id="Path_511-2229" data-name="Path 511" d="M640.567,772.711l-3.62,11.138s-10.86,15.037-4.734,18.1,27.846,6.126,27.846-1.949V784.684s-2.228-10.86-4.455-11.974S640.567,772.711,640.567,772.711Z" transform="translate(-539.915 -400.707)" fill="#090814"/>
        <path id="Path_512-2230" data-name="Path 512" d="M532.242,414.368s-11.74,10.2-11.462,11.593,5.848,90.778,5.848,90.778l3.063,57.919s-3.9,13.644-1.949,16.707-2.785,3.9-2.785,3.9,20.049,18.1,28.4,10.3l7.8-101.081L582.6,578s3.62,38.984,7.8,38.984,21.163.835,20.884-1.392.835-19.214-1.114-29.238-15.037-89.385-15.037-89.385-1.125-68.035,1.8-74.394-1.526-13.042-1.526-13.042l-19.492-7.518L552.524,404.8Z" transform="translate(-493.085 -242.474)" fill="#090814"/>
        <path id="Path_525-2231" data-name="Path 525" d="M19.492,0A19.492,19.492,0,1,1,0,19.492,19.492,19.492,0,0,1,19.492,0Z" transform="translate(43.289 11.4)" fill="#9f616a"/>
        <path id="Path_513-2232" data-name="Path 513" d="M603.187,238.294a17.485,17.485,0,0,0-12.252-11.138,108,108,0,0,1-16.429-5.569s-19.771,9.468-23.669,9.468-3.9-2.506-3.9-2.506-10.024,10.581-15.315,11.7-13.088,14.2-10.3,21.441a40.406,40.406,0,0,0,8.075,12.531s-1.114,38.984,2.506,46.224c0,0-8.911,16.986-.557,18.1s40.377-2.785,45.946,1.114,15.872-.835,17.264,4.455,4.455,6.4,4.455,6.4,4.734-7.518,1.949-11.974S603.187,238.294,603.187,238.294Z" transform="translate(-493.068 -165.355)" fill="#63b5ff"/>
        <path id="Path_514-2233" data-name="Path 514" d="M625.422,433.625l-4.456,2.785s4.734,16.429,6.683,16.986,6.537-14.048,6.537-14.048Z" transform="translate(-535.909 -255.985)" fill="#9f616a"/>
        <path id="Path_515-2234" data-name="Path 515" d="M547.353,161.683a1.6,1.6,0,0,0,1.869-.772c1.5-2.367-1.264-5.42-.665-8.159.48-2.194,2.973-3.5,3.483-5.685.5-2.126-1.031-4.522,0-6.445.808-1.507,2.827-1.9,4.517-1.639s3.293,1.007,5,1.111c2.274.139,4.442-.863,6.666-1.359s4.937-.3,6.245,1.564c1.68,2.4-.024,5.731.561,8.6.465,2.276,5.756,3.874,6.236,2.335a15.609,15.609,0,0,0-.638-10.889,21.808,21.808,0,0,1-1.859-4.428c-.428-2.137.245-4.432-.461-6.494-.952-2.779-4.1-4.2-7.024-4.484s-5.894.227-8.8-.2c-2.6-.38-5.125-1.509-7.751-1.345-3.152.2-5.894,2.227-8.079,4.507s-4.038,4.9-6.519,6.855a12.783,12.783,0,0,0-2.09,1.8A7.022,7.022,0,0,0,537,142.25c.352,1.961,1.117,3.831,1.44,5.8.3,1.847.21,3.735.341,5.6a9.847,9.847,0,0,0,1.643,5.288,4.991,4.991,0,0,0,3.883,2.029c.526.012.97-.46,1.5-.337C546.475,160.783,546.764,161.413,547.353,161.683Z" transform="translate(-499.95 -123.378)" fill="#090814"/>
        <path id="Path_516-2235" data-name="Path 516" d="M634.73,255.639l9.05-4.873s22,52.35,16.708,66.83-25.618,44.275-25.618,44.275-16.151-3.341-14.48-6.683,12.531-24.783,13.366-27.567,6.4-20.884,3.9-22.834-7.379-47.2-7.379-47.2Z" transform="translate(-535.61 -177.827)" opacity="0.1"/>
        <path id="Path_517-2236" data-name="Path 517" d="M636.046,245.416l11.138,3.063s22,52.35,16.708,66.83-25.618,44.275-25.618,44.275-16.151-3.341-14.48-6.683,12.531-24.783,13.366-27.567,6.4-20.884,3.9-22.834-14.48-50.123-14.48-50.123Z" transform="translate(-537.066 -175.54)" fill="#63b5ff"/>
      </g>
      <g id="Group_29" data-name="Group 29" transform="translate(1331.923 334.671)">
        <g id="Group_27" data-name="Group 27" transform="translate(0 0)">
          <path id="Path_496-2237" data-name="Path 496" d="M359.174,221.758c0-20.281,29.738-36.721,66.421-36.721s66.421,16.441,66.421,36.721" transform="translate(-317.421 -145.138)" fill="none" stroke="#3f3d56" stroke-miterlimit="10" stroke-width="2"/>
          <path id="Path_497-2238" data-name="Path 497" d="M515.557,90.037H461.52q-16.032-27.019,0-54.037h54.037Q493.141,63.019,515.557,90.037Z" transform="translate(-386.498 -36)" fill="#e6e6e6"/>
          <rect id="Rectangle_178" data-name="Rectangle 178" width="30.45" height="3.86" transform="translate(82.741 6.433)" fill="#63b5ff"/>
          <path id="Path_518-2239" data-name="Path 518" d="M492.016,322.205c0,21.263-29.738,38.5-66.421,38.5s-66.421-17.237-66.421-38.5" transform="translate(-317.421 -245.586)" fill="none" stroke="#3f3d56" stroke-miterlimit="10" stroke-width="2"/>
          <path id="Path_519-2240" data-name="Path 519" d="M512.205,468.058c-14.847,8.007-34.219,12.853-55.411,12.853-20.318,0-38.964-4.454-53.552-11.879" transform="translate(-349.692 -352.392)" fill="none" stroke="#3f3d56" stroke-miterlimit="10" stroke-width="2"/>
          <path id="Path_520-2241" data-name="Path 520" d="M731.188,147.906c28.255,7.427,48.378,23.762,50.249,43" transform="translate(-589.844 -117.948)" fill="none" stroke="#3f3d56" stroke-miterlimit="10" stroke-width="2"/>
          <path id="Path_521-2242" data-name="Path 521" d="M302.373,200.641c4.761-8.75,13.458-16.451,24.853-22.367" transform="translate(-275.827 -140.186)" fill="none" stroke="#3f3d56" stroke-miterlimit="10" stroke-width="2"/>
          <path id="Path_522-2243" data-name="Path 522" d="M520.568,463.893h54.037q16.032-27.019,0-54.037H520.568Q542.984,436.875,520.568,463.893Z" transform="translate(-435.608 -309.772)" fill="#e6e6e6"/>
          <rect id="Rectangle_182" data-name="Rectangle 182" width="30.45" height="3.86" transform="translate(102.839 110.377)" fill="#63b5ff"/>
          <path id="Path_523-2244" data-name="Path 523" d="M265.263,326.886H211.226q-16.032-27.019,0-54.037h54.037Q242.847,299.867,265.263,326.886Z" transform="translate(-203.21 -209.442)" fill="#e6e6e6"/>
          <rect id="Rectangle_185" data-name="Rectangle 185" width="30.45" height="3.86" transform="translate(14.02 69.84)" fill="#63b5ff"/>
          <path id="Path_524-2245" data-name="Path 524" d="M765,233.907h54.037q16.032-27.019,0-54.037H765Q787.413,206.888,765,233.907Z" transform="translate(-614.602 -141.354)" fill="#e6e6e6"/>
          <rect id="Rectangle_190" data-name="Rectangle 190" width="30.45" height="3.86" transform="translate(167.632 43.876)" fill="#63b5ff"/>
        </g>
      </g>
    </g>
  </g>
</svg>